<?xml version='1.0' encoding='utf-8'?>
<score bpm="120" beatspermeasure="4"><instrument instrument="PianoInstrument"><note measure="1" beat="1.0" duration="0.5" note="C5" velocity="97" /><note measure="1" beat="1.5" duration="0.5" note="E5" velocity="99" /><note measure="1" beat="2.0" duration="0.5" note="G5" velocity="97" /><note measure="1" beat="2.5" duration="0.5" note="A5" velocity="99" /><note measure="1" beat="3.0" duration="0.5" note="C6" velocity="95"><effect which="chorus" wet="0.89" dry="0.11" /></note><note measure="1" beat="3.5" duration="0.5" note="G5" velocity="84"><effect which="flanger" wet="0.58" dry="0.42" /></note><note measure="1" beat="4.0" duration="0.5" note="E5" velocity="73"><effect which="compressor" wet="0.65" dry="0.35" /></note><note measure="1" beat="4.5" duration="0.5" note="C5" velocity="89" /><pedal action="press" measure="1" beat="1" /><note measure="2" beat="1.0" duration="0.5" note="C5" velocity="73" /><note measure="2" beat="1.5" duration="0.5" note="E5" velocity="72" /><note measure="2" beat="2.0" duration="0.5" note="G5" velocity="82" /><note measure="2" beat="2.5" duration="0.5" note="A5" velocity="91"><effect which="compressor" wet="0.68" dry="0.32" /></note><note measure="2" beat="3.0" duration="0.5" note="C6" velocity="87"><effect which="compressor" wet="0.75" dry="0.25" /></note><note measure="2" beat="3.5" duration="0.5" note="G5" velocity="93" /><note measure="2" beat="4.0" duration="0.5" note="E5" velocity="84" /><note measure="2" beat="4.5" duration="0.5" note="C5" velocity="99" /><note measure="3" beat="1.0" duration="0.5" note="C5" velocity="79" /><note measure="3" beat="1.5" duration="0.5" note="E5" velocity="87" /><note measure="3" beat="2.0" duration="0.5" note="G5" velocity="96"><effect which="flanger" wet="0.71" dry="0.29" /></note><note measure="3" beat="2.5" duration="0.5" note="A5" velocity="72" /><note measure="3" beat="3.0" duration="0.5" note="C6" velocity="77" /><note measure="3" beat="3.5" duration="0.5" note="G5" velocity="95"><effect which="noise-gate" wet="0.61" dry="0.39" /></note><note measure="3" beat="4.0" duration="0.5" note="E5" velocity="98" /><note measure="3" beat="4.5" duration="0.5" note="C5" velocity="89" /><pedal action="release" measure="3" beat="1" /><note measure="4" beat="1.0" duration="0.5" note="C5" velocity="92" /><note measure="4" beat="1.5" duration="0.5" note="E5" velocity="99"><effect which="compressor" wet="0.96" dry="0.04" /></note><note measure="4" beat="2.0" duration="0.5" note="G5" velocity="77" /><note measure="4" beat="2.5" duration="0.5" note="A5" velocity="71"><effect which="noise-gate" wet="0.77" dry="0.23" /></note><note measure="4" beat="3.0" duration="0.5" note="C6" velocity="70" /><note measure="4" beat="3.5" duration="0.5" note="G5" velocity="74" /><note measure="4" beat="4.0" duration="0.5" note="E5" velocity="88" /><note measure="4" beat="4.5" duration="0.5" note="C5" velocity="96" /><note measure="5" beat="1.0" duration="0.5" note="C5" velocity="82"><effect which="compressor" wet="0.96" dry="0.04" /></note><note measure="5" beat="1.5" duration="0.5" note="E5" velocity="70" /><note measure="5" beat="2.0" duration="0.5" note="G5" velocity="81" /><note measure="5" beat="2.5" duration="0.5" note="A5" velocity="79" /><note measure="5" beat="3.0" duration="0.5" note="C6" velocity="83" /><note measure="5" beat="3.5" duration="0.5" note="G5" velocity="85" /><note measure="5" beat="4.0" duration="0.5" note="E5" velocity="79" /><note measure="5" beat="4.5" duration="0.5" note="C5" velocity="98" /><pedal action="press" measure="5" beat="1" /><note measure="6" beat="1.0" duration="0.5" note="C5" velocity="96" /><note measure="6" beat="1.5" duration="0.5" note="E5" velocity="100"><effect which="chorus" wet="0.88" dry="0.12" /></note><note measure="6" beat="2.0" duration="0.5" note="G5" velocity="92" /><note measure="6" beat="2.5" duration="0.5" note="A5" velocity="73" /><note measure="6" beat="3.0" duration="0.5" note="C6" velocity="98" /><note measure="6" beat="3.5" duration="0.5" note="G5" velocity="87" /><note measure="6" beat="4.0" duration="0.5" note="E5" velocity="84" /><note measure="6" beat="4.5" duration="0.5" note="C5" velocity="76" /><note measure="7" beat="1.0" duration="0.5" note="C5" velocity="92" /><note measure="7" beat="1.5" duration="0.5" note="E5" velocity="94"><effect which="compressor" wet="0.7" dry="0.3" /></note><note measure="7" beat="2.0" duration="0.5" note="G5" velocity="79" /><note measure="7" beat="2.5" duration="0.5" note="A5" velocity="77"><effect which="noise-gate" wet="0.97" dry="0.03" /></note><note measure="7" beat="3.0" duration="0.5" note="C6" velocity="98" /><note measure="7" beat="3.5" duration="0.5" note="G5" velocity="84"><effect which="chorus" wet="0.56" dry="0.44" /></note><note measure="7" beat="4.0" duration="0.5" note="E5" velocity="98" /><note measure="7" beat="4.5" duration="0.5" note="C5" velocity="81" /><pedal action="release" measure="7" beat="1" /><note measure="8" beat="1.0" duration="0.5" note="C5" velocity="92" /><note measure="8" beat="1.5" duration="0.5" note="E5" velocity="72" /><note measure="8" beat="2.0" duration="0.5" note="G5" velocity="94" /><note measure="8" beat="2.5" duration="0.5" note="A5" velocity="93" /><note measure="8" beat="3.0" duration="0.5" note="C6" velocity="83" /><note measure="8" beat="3.5" duration="0.5" note="G5" velocity="72" /><note measure="8" beat="4.0" duration="0.5" note="E5" velocity="75"><effect which="chorus" wet="0.52" dry="0.48" /></note><note measure="8" beat="4.5" duration="0.5" note="C5" velocity="99"><effect which="flanger" wet="0.77" dry="0.23" /></note><note measure="9" beat="1.0" duration="0.5" note="C5" velocity="83"><effect which="flanger" wet="0.72" dry="0.28" /></note><note measure="9" beat="1.5" duration="0.5" note="E5" velocity="87" /><note measure="9" beat="2.0" duration="0.5" note="G5" velocity="78"><effect which="flanger" wet="0.5" dry="0.5" /></note><note measure="9" beat="2.5" duration="0.5" note="A5" velocity="100" /><note measure="9" beat="3.0" duration="0.5" note="C6" velocity="78" /><note measure="9" beat="3.5" duration="0.5" note="G5" velocity="78" /><note measure="9" beat="4.0" duration="0.5" note="E5" velocity="72" /><note measure="9" beat="4.5" duration="0.5" note="C5" velocity="75" /><pedal action="press" measure="9" beat="1" /><note measure="10" beat="1.0" duration="0.5" note="C5" velocity="70" /><note measure="10" beat="1.5" duration="0.5" note="E5" velocity="88" /><note measure="10" beat="2.0" duration="0.5" note="G5" velocity="70" /><note measure="10" beat="2.5" duration="0.5" note="A5" velocity="71" /><note measure="10" beat="3.0" duration="0.5" note="C6" velocity="90" /><note measure="10" beat="3.5" duration="0.5" note="G5" velocity="73" /><note measure="10" beat="4.0" duration="0.5" note="E5" velocity="74"><effect which="flanger" wet="0.96" dry="0.04" /></note><note measure="10" beat="4.5" duration="0.5" note="C5" velocity="78" /><note measure="11" beat="1.0" duration="0.5" note="C5" velocity="94"><effect which="noise-gate" wet="0.57" dry="0.43" /></note><note measure="11" beat="1.5" duration="0.5" note="E5" velocity="82" /><note measure="11" beat="2.0" duration="0.5" note="G5" velocity="83" /><note measure="11" beat="2.5" duration="0.5" note="A5" velocity="94" /><note measure="11" beat="3.0" duration="0.5" note="C6" velocity="86" /><note measure="11" beat="3.5" duration="0.5" note="G5" velocity="100" /><note measure="11" beat="4.0" duration="0.5" note="E5" velocity="97"><effect which="noise-gate" wet="0.93" dry="0.07" /></note><note measure="11" beat="4.5" duration="0.5" note="C5" velocity="89" /><pedal action="release" measure="11" beat="1" /><note measure="12" beat="1.0" duration="0.5" note="C5" velocity="92" /><note measure="12" beat="1.5" duration="0.5" note="E5" velocity="83" /><note measure="12" beat="2.0" duration="0.5" note="G5" velocity="71" /><note measure="12" beat="2.5" duration="0.5" note="A5" velocity="79" /><note measure="12" beat="3.0" duration="0.5" note="C6" velocity="82" /><note measure="12" beat="3.5" duration="0.5" note="G5" velocity="76" /><note measure="12" beat="4.0" duration="0.5" note="E5" velocity="79" /><note measure="12" beat="4.5" duration="0.5" note="C5" velocity="94"><effect which="compressor" wet="0.9" dry="0.1" /></note><note measure="13" beat="1.0" duration="0.5" note="C5" velocity="97"><effect which="compressor" wet="0.72" dry="0.28" /></note><note measure="13" beat="1.5" duration="0.5" note="E5" velocity="77"><effect which="compressor" wet="0.78" dry="0.22" /></note><note measure="13" beat="2.0" duration="0.5" note="G5" velocity="99"><effect which="chorus" wet="0.63" dry="0.37" /></note><note measure="13" beat="2.5" duration="0.5" note="A5" velocity="99"><effect which="flanger" wet="0.77" dry="0.23" /></note><note measure="13" beat="3.0" duration="0.5" note="C6" velocity="75" /><note measure="13" beat="3.5" duration="0.5" note="G5" velocity="99"><effect which="flanger" wet="0.83" dry="0.17" /></note><note measure="13" beat="4.0" duration="0.5" note="E5" velocity="87" /><note measure="13" beat="4.5" duration="0.5" note="C5" velocity="83" /><pedal action="press" measure="13" beat="1" /><note measure="14" beat="1.0" duration="0.5" note="C5" velocity="78" /><note measure="14" beat="1.5" duration="0.5" note="E5" velocity="92" /><note measure="14" beat="2.0" duration="0.5" note="G5" velocity="71" /><note measure="14" beat="2.5" duration="0.5" note="A5" velocity="70"><effect which="flanger" wet="0.93" dry="0.07" /></note><note measure="14" beat="3.0" duration="0.5" note="C6" velocity="88"><effect which="noise-gate" wet="0.94" dry="0.06" /></note><note measure="14" beat="3.5" duration="0.5" note="G5" velocity="96" /><note measure="14" beat="4.0" duration="0.5" note="E5" velocity="70" /><note measure="14" beat="4.5" duration="0.5" note="C5" velocity="84" /><note measure="15" beat="1.0" duration="0.5" note="C5" velocity="95" /><note measure="15" beat="1.5" duration="0.5" note="E5" velocity="70" /><note measure="15" beat="2.0" duration="0.5" note="G5" velocity="80" /><note measure="15" beat="2.5" duration="0.5" note="A5" velocity="90" /><note measure="15" beat="3.0" duration="0.5" note="C6" velocity="70" /><note measure="15" beat="3.5" duration="0.5" note="G5" velocity="83" /><note measure="15" beat="4.0" duration="0.5" note="E5" velocity="86"><effect which="noise-gate" wet="0.82" dry="0.18" /></note><note measure="15" beat="4.5" duration="0.5" note="C5" velocity="90"><effect which="flanger" wet="0.63" dry="0.37" /></note><pedal action="release" measure="15" beat="1" /><note measure="16" beat="1.0" duration="0.5" note="C5" velocity="84"><effect which="chorus" wet="0.74" dry="0.26" /></note><note measure="16" beat="1.5" duration="0.5" note="E5" velocity="97" /><note measure="16" beat="2.0" duration="0.5" note="G5" velocity="98" /><note measure="16" beat="2.5" duration="0.5" note="A5" velocity="96"><effect which="compressor" wet="0.72" dry="0.28" /></note><note measure="16" beat="3.0" duration="0.5" note="C6" velocity="95" /><note measure="16" beat="3.5" duration="0.5" note="G5" velocity="78" /><note measure="16" beat="4.0" duration="0.5" note="E5" velocity="90" /><note measure="16" beat="4.5" duration="0.5" note="C5" velocity="85"><effect which="flanger" wet="0.75" dry="0.25" /></note><note measure="17" beat="1.0" duration="0.5" note="C5" velocity="81"><effect which="noise-gate" wet="0.5" dry="0.5" /></note><note measure="17" beat="1.5" duration="0.5" note="E5" velocity="82"><effect which="compressor" wet="0.64" dry="0.36" /></note><note measure="17" beat="2.0" duration="0.5" note="G5" velocity="71" /><note measure="17" beat="2.5" duration="0.5" note="A5" velocity="95"><effect which="compressor" wet="0.63" dry="0.37" /></note><note measure="17" beat="3.0" duration="0.5" note="C6" velocity="76"><effect which="noise-gate" wet="0.57" dry="0.43" /></note><note measure="17" beat="3.5" duration="0.5" note="G5" velocity="76" /><note measure="17" beat="4.0" duration="0.5" note="E5" velocity="99" /><note measure="17" beat="4.5" duration="0.5" note="C5" velocity="78" /><pedal action="press" measure="17" beat="1" /><note measure="18" beat="1.0" duration="0.5" note="C5" velocity="93"><effect which="compressor" wet="0.66" dry="0.34" /></note><note measure="18" beat="1.5" duration="0.5" note="E5" velocity="95"><effect which="compressor" wet="0.73" dry="0.27" /></note><note measure="18" beat="2.0" duration="0.5" note="G5" velocity="86"><effect which="flanger" wet="0.72" dry="0.28" /></note><note measure="18" beat="2.5" duration="0.5" note="A5" velocity="79" /><note measure="18" beat="3.0" duration="0.5" note="C6" velocity="87" /><note measure="18" beat="3.5" duration="0.5" note="G5" velocity="95"><effect which="flanger" wet="0.89" dry="0.11" /></note><note measure="18" beat="4.0" duration="0.5" note="E5" velocity="76" /><note measure="18" beat="4.5" duration="0.5" note="C5" velocity="89"><effect which="compressor" wet="0.54" dry="0.46" /></note><note measure="19" beat="1.0" duration="0.5" note="C5" velocity="87" /><note measure="19" beat="1.5" duration="0.5" note="E5" velocity="84" /><note measure="19" beat="2.0" duration="0.5" note="G5" velocity="100" /><note measure="19" beat="2.5" duration="0.5" note="A5" velocity="89" /><note measure="19" beat="3.0" duration="0.5" note="C6" velocity="93"><effect which="noise-gate" wet="0.89" dry="0.11" /></note><note measure="19" beat="3.5" duration="0.5" note="G5" velocity="94" /><note measure="19" beat="4.0" duration="0.5" note="E5" velocity="72"><effect which="flanger" wet="0.88" dry="0.12" /></note><note measure="19" beat="4.5" duration="0.5" note="C5" velocity="94"><effect which="noise-gate" wet="0.54" dry="0.46" /></note><pedal action="release" measure="19" beat="1" /><note measure="20" beat="1.0" duration="0.5" note="C5" velocity="71" /><note measure="20" beat="1.5" duration="0.5" note="E5" velocity="84" /><note measure="20" beat="2.0" duration="0.5" note="G5" velocity="90" /><note measure="20" beat="2.5" duration="0.5" note="A5" velocity="92"><effect which="noise-gate" wet="0.9" dry="0.1" /></note><note measure="20" beat="3.0" duration="0.5" note="C6" velocity="89" /><note measure="20" beat="3.5" duration="0.5" note="G5" velocity="96"><effect which="chorus" wet="0.93" dry="0.07" /></note><note measure="20" beat="4.0" duration="0.5" note="E5" velocity="96" /><note measure="20" beat="4.5" duration="0.5" note="C5" velocity="94"><effect which="chorus" wet="0.73" dry="0.27" /></note><note measure="21" beat="1.0" duration="0.5" note="C5" velocity="88" /><note measure="21" beat="1.5" duration="0.5" note="E5" velocity="92" /><note measure="21" beat="2.0" duration="0.5" note="G5" velocity="87" /><note measure="21" beat="2.5" duration="0.5" note="A5" velocity="75" /><note measure="21" beat="3.0" duration="0.5" note="C6" velocity="90"><effect which="chorus" wet="0.62" dry="0.38" /></note><note measure="21" beat="3.5" duration="0.5" note="G5" velocity="100" /><note measure="21" beat="4.0" duration="0.5" note="E5" velocity="82" /><note measure="21" beat="4.5" duration="0.5" note="C5" velocity="97" /><pedal action="press" measure="21" beat="1" /><note measure="22" beat="1.0" duration="0.5" note="C5" velocity="94" /><note measure="22" beat="1.5" duration="0.5" note="E5" velocity="82" /><note measure="22" beat="2.0" duration="0.5" note="G5" velocity="96" /><note measure="22" beat="2.5" duration="0.5" note="A5" velocity="92" /><note measure="22" beat="3.0" duration="0.5" note="C6" velocity="97" /><note measure="22" beat="3.5" duration="0.5" note="G5" velocity="73"><effect which="noise-gate" wet="0.61" dry="0.39" /></note><note measure="22" beat="4.0" duration="0.5" note="E5" velocity="76" /><note measure="22" beat="4.5" duration="0.5" note="C5" velocity="79"><effect which="chorus" wet="0.72" dry="0.28" /></note><note measure="23" beat="1.0" duration="0.5" note="C5" velocity="97" /><note measure="23" beat="1.5" duration="0.5" note="E5" velocity="75" /><note measure="23" beat="2.0" duration="0.5" note="G5" velocity="87"><effect which="noise-gate" wet="0.77" dry="0.23" /></note><note measure="23" beat="2.5" duration="0.5" note="A5" velocity="88" /><note measure="23" beat="3.0" duration="0.5" note="C6" velocity="85"><effect which="noise-gate" wet="0.73" dry="0.27" /></note><note measure="23" beat="3.5" duration="0.5" note="G5" velocity="73" /><note measure="23" beat="4.0" duration="0.5" note="E5" velocity="78" /><note measure="23" beat="4.5" duration="0.5" note="C5" velocity="71"><effect which="compressor" wet="0.86" dry="0.14" /></note><pedal action="release" measure="23" beat="1" /><note measure="24" beat="1.0" duration="0.5" note="C5" velocity="70"><effect which="compressor" wet="0.55" dry="0.45" /></note><note measure="24" beat="1.5" duration="0.5" note="E5" velocity="76" /><note measure="24" beat="2.0" duration="0.5" note="G5" velocity="95"><effect which="chorus" wet="0.57" dry="0.43" /></note><note measure="24" beat="2.5" duration="0.5" note="A5" velocity="88" /><note measure="24" beat="3.0" duration="0.5" note="C6" velocity="80" /><note measure="24" beat="3.5" duration="0.5" note="G5" velocity="87"><effect which="compressor" wet="0.76" dry="0.24" /></note><note measure="24" beat="4.0" duration="0.5" note="E5" velocity="90" /><note measure="24" beat="4.5" duration="0.5" note="C5" velocity="95"><effect which="compressor" wet="0.78" dry="0.22" /></note><note measure="25" beat="1.0" duration="0.5" note="C5" velocity="74" /><note measure="25" beat="1.5" duration="0.5" note="E5" velocity="100"><effect which="compressor" wet="0.63" dry="0.37" /></note><note measure="25" beat="2.0" duration="0.5" note="G5" velocity="97"><effect which="chorus" wet="0.9" dry="0.1" /></note><note measure="25" beat="2.5" duration="0.5" note="A5" velocity="100" /><note measure="25" beat="3.0" duration="0.5" note="C6" velocity="75"><effect which="compressor" wet="0.74" dry="0.26" /></note><note measure="25" beat="3.5" duration="0.5" note="G5" velocity="81" /><note measure="25" beat="4.0" duration="0.5" note="E5" velocity="85" /><note measure="25" beat="4.5" duration="0.5" note="C5" velocity="95"><effect which="flanger" wet="0.73" dry="0.27" /></note><pedal action="press" measure="25" beat="1" /><note measure="26" beat="1.0" duration="0.5" note="C5" velocity="100" /><note measure="26" beat="1.5" duration="0.5" note="E5" velocity="92"><effect which="chorus" wet="0.64" dry="0.36" /></note><note measure="26" beat="2.0" duration="0.5" note="G5" velocity="74" /><note measure="26" beat="2.5" duration="0.5" note="A5" velocity="72" /><note measure="26" beat="3.0" duration="0.5" note="C6" velocity="78" /><note measure="26" beat="3.5" duration="0.5" note="G5" velocity="75"><effect which="chorus" wet="0.68" dry="0.32" /></note><note measure="26" beat="4.0" duration="0.5" note="E5" velocity="86" /><note measure="26" beat="4.5" duration="0.5" note="C5" velocity="97" /><note measure="27" beat="1.0" duration="0.5" note="C5" velocity="73"><effect which="flanger" wet="0.82" dry="0.18" /></note><note measure="27" beat="1.5" duration="0.5" note="E5" velocity="88" /><note measure="27" beat="2.0" duration="0.5" note="G5" velocity="93" /><note measure="27" beat="2.5" duration="0.5" note="A5" velocity="75" /><note measure="27" beat="3.0" duration="0.5" note="C6" velocity="93"><effect which="chorus" wet="0.81" dry="0.19" /></note><note measure="27" beat="3.5" duration="0.5" note="G5" velocity="92"><effect which="noise-gate" wet="0.51" dry="0.49" /></note><note measure="27" beat="4.0" duration="0.5" note="E5" velocity="96" /><note measure="27" beat="4.5" duration="0.5" note="C5" velocity="94"><effect which="compressor" wet="0.62" dry="0.38" /></note><pedal action="release" measure="27" beat="1" /><note measure="28" beat="1.0" duration="0.5" note="C5" velocity="83" /><note measure="28" beat="1.5" duration="0.5" note="E5" velocity="79"><effect which="flanger" wet="0.77" dry="0.23" /></note><note measure="28" beat="2.0" duration="0.5" note="G5" velocity="72"><effect which="chorus" wet="0.64" dry="0.36" /></note><note measure="28" beat="2.5" duration="0.5" note="A5" velocity="94" /><note measure="28" beat="3.0" duration="0.5" note="C6" velocity="93"><effect which="noise-gate" wet="0.78" dry="0.22" /></note><note measure="28" beat="3.5" duration="0.5" note="G5" velocity="82" /><note measure="28" beat="4.0" duration="0.5" note="E5" velocity="94" /><note measure="28" beat="4.5" duration="0.5" note="C5" velocity="90"><effect which="noise-gate" wet="0.84" dry="0.16" /></note><note measure="29" beat="1.0" duration="0.5" note="C5" velocity="80" /><note measure="29" beat="1.5" duration="0.5" note="E5" velocity="90" /><note measure="29" beat="2.0" duration="0.5" note="G5" velocity="80"><effect which="noise-gate" wet="0.88" dry="0.12" /></note><note measure="29" beat="2.5" duration="0.5" note="A5" velocity="97"><effect which="flanger" wet="0.96" dry="0.04" /></note><note measure="29" beat="3.0" duration="0.5" note="C6" velocity="94"><effect which="noise-gate" wet="0.68" dry="0.32" /></note><note measure="29" beat="3.5" duration="0.5" note="G5" velocity="83" /><note measure="29" beat="4.0" duration="0.5" note="E5" velocity="98" /><note measure="29" beat="4.5" duration="0.5" note="C5" velocity="81"><effect which="chorus" wet="0.9" dry="0.1" /></note><pedal action="press" measure="29" beat="1" /><note measure="30" beat="1.0" duration="0.5" note="C5" velocity="83" /><note measure="30" beat="1.5" duration="0.5" note="E5" velocity="85" /><note measure="30" beat="2.0" duration="0.5" note="G5" velocity="73"><effect which="noise-gate" wet="0.87" dry="0.13" /></note><note measure="30" beat="2.5" duration="0.5" note="A5" velocity="72" /><note measure="30" beat="3.0" duration="0.5" note="C6" velocity="70"><effect which="chorus" wet="0.59" dry="0.41" /></note><note measure="30" beat="3.5" duration="0.5" note="G5" velocity="94" /><note measure="30" beat="4.0" duration="0.5" note="E5" velocity="75" /><note measure="30" beat="4.5" duration="0.5" note="C5" velocity="89"><effect which="noise-gate" wet="0.94" dry="0.06" /></note><note measure="31" beat="1.0" duration="0.5" note="C5" velocity="85" /><note measure="31" beat="1.5" duration="0.5" note="E5" velocity="83"><effect which="compressor" wet="0.56" dry="0.44" /></note><note measure="31" beat="2.0" duration="0.5" note="G5" velocity="93" /><note measure="31" beat="2.5" duration="0.5" note="A5" velocity="98" /><note measure="31" beat="3.0" duration="0.5" note="C6" velocity="92"><effect which="flanger" wet="0.57" dry="0.43" /></note><note measure="31" beat="3.5" duration="0.5" note="G5" velocity="100"><effect which="compressor" wet="0.52" dry="0.48" /></note><note measure="31" beat="4.0" duration="0.5" note="E5" velocity="95" /><note measure="31" beat="4.5" duration="0.5" note="C5" velocity="79" /><pedal action="release" measure="31" beat="1" /><note measure="32" beat="1.0" duration="0.5" note="C5" velocity="71" /><note measure="32" beat="1.5" duration="0.5" note="E5" velocity="95" /><note measure="32" beat="2.0" duration="0.5" note="G5" velocity="72"><effect which="flanger" wet="0.95" dry="0.05" /></note><note measure="32" beat="2.5" duration="0.5" note="A5" velocity="79" /><note measure="32" beat="3.0" duration="0.5" note="C6" velocity="82" /><note measure="32" beat="3.5" duration="0.5" note="G5" velocity="74" /><note measure="32" beat="4.0" duration="0.5" note="E5" velocity="75"><effect which="chorus" wet="0.69" dry="0.31" /></note><note measure="32" beat="4.5" duration="0.5" note="C5" velocity="99" /><note measure="33" beat="1.0" duration="0.5" note="C5" velocity="74"><effect which="chorus" wet="0.66" dry="0.34" /></note><note measure="33" beat="1.5" duration="0.5" note="E5" velocity="79" /><note measure="33" beat="2.0" duration="0.5" note="G5" velocity="88"><effect which="flanger" wet="0.81" dry="0.19" /></note><note measure="33" beat="2.5" duration="0.5" note="A5" velocity="100"><effect which="flanger" wet="0.85" dry="0.15" /></note><note measure="33" beat="3.0" duration="0.5" note="C6" velocity="79" /><note measure="33" beat="3.5" duration="0.5" note="G5" velocity="83"><effect which="flanger" wet="0.78" dry="0.22" /></note><note measure="33" beat="4.0" duration="0.5" note="E5" velocity="92" /><note measure="33" beat="4.5" duration="0.5" note="C5" velocity="73"><effect which="chorus" wet="0.85" dry="0.15" /></note><pedal action="press" measure="33" beat="1" /></instrument><instrument instrument="Drums"><note measure="1" beat="1" duration="0.5" note="snare" /><note measure="1" beat="3" duration="0.5" note="snare" /><note measure="1" beat="3.5" duration="0.5" note="snare" /><note measure="2" beat="1" duration="0.5" note="bass" /><note measure="2" beat="3" duration="0.5" note="bass" /><note measure="2" beat="3.5" duration="0.5" note="bass"><effect which="compressor" wet="0.96" dry="0.04" /></note><note measure="3" beat="1" duration="0.5" note="medium_tom" /><note measure="3" beat="3.5" duration="0.5" note="medium_tom"><effect which="noise-gate" wet="0.68" dry="0.32" /></note><note measure="4" beat="1" duration="0.5" note="high_tom"><effect which="flanger" wet="0.81" dry="0.19" /></note><note measure="4" beat="3" duration="0.5" note="high_tom"><effect which="flanger" wet="0.65" dry="0.35" /></note><note measure="4" beat="3.5" duration="0.5" note="high_tom" /><note measure="5" beat="1" duration="0.5" note="cymbal"><effect which="noise-gate" wet="0.62" dry="0.38" /></note><note measure="5" beat="3" duration="0.5" note="cymbal" /><note measure="5" beat="3.5" duration="0.5" note="cymbal" /><note measure="6" beat="1" duration="0.5" note="hi_hat"><effect which="compressor" wet="0.54" dry="0.46" /></note><note measure="6" beat="3" duration="0.5" note="hi_hat"><effect which="compressor" wet="0.77" dry="0.23" /></note><note measure="6" beat="3.5" duration="0.5" note="hi_hat" /><note measure="7" beat="1" duration="0.5" note="snare" /><note measure="7" beat="3" duration="0.5" note="snare" /><note measure="7" beat="3.5" duration="0.5" note="snare" /><note measure="8" beat="1" duration="0.5" note="bass"><effect which="compressor" wet="0.86" dry="0.14" /></note><note measure="8" beat="3" duration="0.5" note="bass" /><note measure="8" beat="3.5" duration="0.5" note="bass"><effect which="noise-gate" wet="0.62" dry="0.38" /></note><note measure="9" beat="1" duration="0.5" note="medium_tom"><effect which="noise-gate" wet="0.66" dry="0.34" /></note><note measure="9" beat="3.5" duration="0.5" note="medium_tom" /><note measure="10" beat="1" duration="0.5" note="high_tom" /><note measure="10" beat="3" duration="0.5" note="high_tom" /><note measure="10" beat="3.5" duration="0.5" note="high_tom" /><note measure="11" beat="1" duration="0.5" note="cymbal"><effect which="compressor" wet="0.92" dry="0.08" /></note><note measure="11" beat="3" duration="0.5" note="cymbal" /><note measure="11" beat="3.5" duration="0.5" note="cymbal"><effect which="compressor" wet="1.0" dry="0.0" /></note><note measure="12" beat="1" duration="0.5" note="hi_hat" /><note measure="12" beat="3" duration="0.5" note="hi_hat" /><note measure="12" beat="3.5" duration="0.5" note="hi_hat" /><note measure="13" beat="1" duration="0.5" note="snare"><effect which="chorus" wet="0.86" dry="0.14" /></note><note measure="13" beat="3" duration="0.5" note="snare" /><note measure="13" beat="3.5" duration="0.5" note="snare" /><note measure="14" beat="1" duration="0.5" note="bass" /><note measure="14" beat="3" duration="0.5" note="bass" /><note measure="14" beat="3.5" duration="0.5" note="bass" /><note measure="15" beat="1" duration="0.5" note="medium_tom" /><note measure="15" beat="3.5" duration="0.5" note="medium_tom" /><note measure="16" beat="1" duration="0.5" note="high_tom" /><note measure="16" beat="3" duration="0.5" note="high_tom"><effect which="compressor" wet="0.82" dry="0.18" /></note><note measure="16" beat="3.5" duration="0.5" note="high_tom" /><note measure="17" beat="1" duration="0.5" note="cymbal" /><note measure="17" beat="3" duration="0.5" note="cymbal" /><note measure="17" beat="3.5" duration="0.5" note="cymbal" /><note measure="18" beat="1" duration="0.5" note="hi_hat"><effect which="noise-gate" wet="0.73" dry="0.27" /></note><note measure="18" beat="3" duration="0.5" note="hi_hat" /><note measure="18" beat="3.5" duration="0.5" note="hi_hat" /><note measure="19" beat="1" duration="0.5" note="snare" /><note measure="19" beat="3" duration="0.5" note="snare" /><note measure="19" beat="3.5" duration="0.5" note="snare" /><note measure="20" beat="1" duration="0.5" note="bass" /><note measure="20" beat="3" duration="0.5" note="bass" /><note measure="20" beat="3.5" duration="0.5" note="bass"><effect which="flanger" wet="0.68" dry="0.32" /></note><note measure="21" beat="1" duration="0.5" note="medium_tom" /><note measure="21" beat="3.5" duration="0.5" note="medium_tom" /><note measure="22" beat="1" duration="0.5" note="high_tom" /><note measure="22" beat="3" duration="0.5" note="high_tom" /><note measure="22" beat="3.5" duration="0.5" note="high_tom" /><note measure="23" beat="1" duration="0.5" note="cymbal"><effect which="compressor" wet="0.97" dry="0.03" /></note><note measure="23" beat="3" duration="0.5" note="cymbal"><effect which="noise-gate" wet="0.52" dry="0.48" /></note><note measure="23" beat="3.5" duration="0.5" note="cymbal" /><note measure="24" beat="1" duration="0.5" note="hi_hat"><effect which="compressor" wet="0.58" dry="0.42" /></note><note measure="24" beat="3" duration="0.5" note="hi_hat"><effect which="compressor" wet="0.82" dry="0.18" /></note><note measure="24" beat="3.5" duration="0.5" note="hi_hat"><effect which="compressor" wet="0.99" dry="0.01" /></note><note measure="25" beat="1" duration="0.5" note="snare"><effect which="flanger" wet="0.51" dry="0.49" /></note><note measure="25" beat="3" duration="0.5" note="snare"><effect which="compressor" wet="0.76" dry="0.24" /></note><note measure="25" beat="3.5" duration="0.5" note="snare"><effect which="chorus" wet="0.52" dry="0.48" /></note><note measure="26" beat="1" duration="0.5" note="bass" /><note measure="26" beat="3" duration="0.5" note="bass" /><note measure="26" beat="3.5" duration="0.5" note="bass" /><note measure="27" beat="1" duration="0.5" note="medium_tom"><effect which="compressor" wet="0.5" dry="0.5" /></note><note measure="27" beat="3.5" duration="0.5" note="medium_tom" /><note measure="28" beat="1" duration="0.5" note="high_tom" /><note measure="28" beat="3" duration="0.5" note="high_tom" /><note measure="28" beat="3.5" duration="0.5" note="high_tom" /><note measure="29" beat="1" duration="0.5" note="cymbal"><effect which="chorus" wet="0.88" dry="0.12" /></note><note measure="29" beat="3" duration="0.5" note="cymbal"><effect which="flanger" wet="0.91" dry="0.09" /></note><note measure="29" beat="3.5" duration="0.5" note="cymbal" /><note measure="30" beat="1" duration="0.5" note="hi_hat" /><note measure="30" beat="3" duration="0.5" note="hi_hat" /><note measure="30" beat="3.5" duration="0.5" note="hi_hat"><effect which="chorus" wet="0.53" dry="0.47" /></note><note measure="31" beat="1" duration="0.5" note="snare" /><note measure="31" beat="3" duration="0.5" note="snare" /><note measure="31" beat="3.5" duration="0.5" note="snare"><effect which="noise-gate" wet="0.61" dry="0.39" /></note><note measure="32" beat="1" duration="0.5" note="bass" /><note measure="32" beat="3" duration="0.5" note="bass" /><note measure="32" beat="3.5" duration="0.5" note="bass" /><note measure="33" beat="1" duration="0.5" note="medium_tom" /><note measure="33" beat="3.5" duration="0.5" note="medium_tom" /></instrument><instrument instrument="Organ"><note measure="1" beat="1" duration="2" note="C4" drawbars="808000000" /><note measure="2" beat="1" duration="2" note="E4" drawbars="808000000"><effect which="flanger" wet="0.58" dry="0.42" /></note><note measure="3" beat="1" duration="2" note="G4" drawbars="808000000" /><note measure="4" beat="1" duration="2" note="C5" drawbars="808000000" /><note measure="5" beat="1" duration="2" note="C4" drawbars="404000000"><effect which="flanger" wet="0.59" dry="0.41" /></note><note measure="6" beat="1" duration="2" note="E4" drawbars="404000000"><effect which="compressor" wet="0.53" dry="0.47" /></note><note measure="7" beat="1" duration="2" note="G4" drawbars="404000000" /><note measure="8" beat="1" duration="2" note="C5" drawbars="404000000" /><note measure="9" beat="1" duration="2" note="C4" drawbars="808000000" /><note measure="10" beat="1" duration="2" note="E4" drawbars="808000000"><effect which="flanger" wet="0.68" dry="0.32" /></note><note measure="11" beat="1" duration="2" note="G4" drawbars="808000000" /><note measure="12" beat="1" duration="2" note="C5" drawbars="808000000"><effect which="flanger" wet="0.83" dry="0.17" /></note><note measure="13" beat="1" duration="2" note="C4" drawbars="404000000" /><note measure="14" beat="1" duration="2" note="E4" drawbars="404000000"><effect which="flanger" wet="0.63" dry="0.37" /></note><note measure="15" beat="1" duration="2" note="G4" drawbars="404000000" /><note measure="16" beat="1" duration="2" note="C5" drawbars="404000000" /><note measure="17" beat="1" duration="2" note="C4" drawbars="808000000" /><note measure="18" beat="1" duration="2" note="E4" drawbars="808000000" /><note measure="19" beat="1" duration="2" note="G4" drawbars="808000000"><effect which="compressor" wet="0.5" dry="0.5" /></note><note measure="20" beat="1" duration="2" note="C5" drawbars="808000000"><effect which="noise-gate" wet="0.57" dry="0.43" /></note><note measure="21" beat="1" duration="2" note="C4" drawbars="606000000" /><note measure="22" beat="1" duration="2" note="E4" drawbars="606000000" /><note measure="23" beat="1" duration="2" note="G4" drawbars="606000000"><effect which="chorus" wet="0.91" dry="0.09" /></note><note measure="24" beat="1" duration="2" note="C5" drawbars="606000000" /><note measure="25" beat="1" duration="2" note="C4" drawbars="606000000" /><note measure="26" beat="1" duration="2" note="E4" drawbars="606000000" /><note measure="27" beat="1" duration="2" note="G4" drawbars="606000000"><effect which="chorus" wet="0.73" dry="0.27" /></note><note measure="28" beat="1" duration="2" note="C5" drawbars="606000000"><effect which="chorus" wet="0.74" dry="0.26" /></note><note measure="29" beat="1" duration="2" note="C4" drawbars="606000000" /><note measure="30" beat="1" duration="2" note="E4" drawbars="606000000" /><note measure="31" beat="1" duration="2" note="G4" drawbars="606000000" /><note measure="32" beat="1" duration="2" note="C5" drawbars="606000000"><effect which="flanger" wet="0.72" dry="0.28" /></note><note measure="33" beat="1" duration="2" note="C4" drawbars="606000000"><effect which="noise-gate" wet="0.58" dry="0.42" /></note><note measure="34" beat="1" duration="2" note="E4" drawbars="606000000"><effect which="chorus" wet="0.7" dry="0.3" /></note><note measure="35" beat="1" duration="2" note="G4" drawbars="606000000" /><note measure="36" beat="1" duration="2" note="C5" drawbars="606000000" /></instrument><instrument instrument="Additive"><note measure="1" beat="1" duration="0.5" harmonics="1,0.8,0.6"><effect which="noise-gate" wet="0.85" dry="0.15" /></note><note measure="1" beat="3" duration="0.5" harmonics="1,0.9,0.7,0.6" /><note measure="1" beat="3" duration="0.5" harmonics="1,0.9,0.5,0.1" /></instrument></score>